<svg xmlns="http://www.w3.org/2000/svg" viewBox="0 0 1366 651" preserveAspectRatio="xMidYMid" width="1366" height="651" style="shape-rendering: auto; display: block; background: rgb(255, 255, 255);"><g data-idx="1"><linearGradient y2="0" y1="0" x2="1" x1="0" id="lg-nq4q5u6dq7r" data-idx="2">
  <stop offset="0" stop-color="#ff00ff" data-idx="3"></stop>
  <stop offset="1" stop-color="#00ffff" data-idx="4"></stop>
</linearGradient><path opacity="0.4" fill="url(#lg-nq4q5u6dq7r)" d="M 0 0 L 0 438.508 Q 136.6 417.773 273.2 385.487 T 546.4 327.445 T 819.6 300.658 T 1092.8 226.311 T 1366 239.877 L 1366 0 Z" data-idx="5">
  
</path><path opacity="0.4" fill="url(#lg-nq4q5u6dq7r)" d="M 0 0 L 0 386.53 Q 136.6 363.644 273.2 342.525 T 546.4 387.468 T 819.6 333.066 T 1092.8 272.353 T 1366 261.443 L 1366 0 Z" data-idx="7">
  
</path><path opacity="0.4" fill="url(#lg-nq4q5u6dq7r)" d="M 0 0 L 0 483.633 Q 136.6 389.814 273.2 342.534 T 546.4 347.882 T 819.6 352.517 T 1092.8 227.815 T 1366 236.777 L 1366 0 Z" data-idx="9">
  
</path><path opacity="0.4" fill="url(#lg-nq4q5u6dq7r)" d="M 0 0 L 0 416.376 Q 136.6 401.306 273.2 371.81 T 546.4 291.182 T 819.6 306.682 T 1092.8 256.394 T 1366 163.257 L 1366 0 Z" data-idx="11">
  
</path><path opacity="0.4" fill="url(#lg-nq4q5u6dq7r)" d="M 0 0 L 0 415.459 Q 136.6 394.836 273.2 378.582 T 546.4 373.468 T 819.6 272.076 T 1092.8 190.256 T 1366 228.978 L 1366 0 Z" data-idx="13">
  
</path><g data-idx="15"></g></g><text data-watermark="true" text-anchor="middle" dominant-baseline="middle" stroke-opacity="0.1" fill="black" fill-opacity="0.1" stroke="white" stroke-width="1" font-size="15.0" x="683.0" y="325.5" data-idx="16" style="opacity: 1; font-size: 15px;">LOADING.IO</text></svg>